<?xml version="1.0"?><svg xmlns="http://www.w3.org/2000/svg" viewBox="0 0 290.637 290.637" version="1.1"><path style="fill: #ffd924" d="M235.945,182.024c-2.32,2.261-3.378,5.519-2.83,8.712l11.135,64.925c1.243,7.243-0.734,14.588-5.425,20.151  c-4.784,5.674-11.729,8.929-19.057,8.929c-4.022,0-7.913-0.973-11.563-2.892l-58.307-30.654c-2.813-1.479-6.347-1.478-9.16,0  L82.433,281.85c-3.65,1.919-7.541,2.892-11.563,2.892c-7.327,0-14.273-3.254-19.057-8.928c-4.69-5.563-6.668-12.908-5.425-20.152  l11.136-64.925c0.547-3.193-0.511-6.451-2.831-8.713L7.521,136.044c-6.821-6.649-9.229-16.407-6.286-25.467  c2.944-9.059,10.628-15.537,20.055-16.906l65.189-9.473c3.206-0.467,5.977-2.479,7.41-5.385l29.153-59.071  c4.216-8.541,12.752-13.847,22.276-13.847c9.525,0,18.062,5.306,22.277,13.847l29.153,59.071c1.434,2.905,4.204,4.918,7.411,5.385  l65.188,9.473c9.427,1.369,17.11,7.848,20.055,16.906c2.943,9.06,0.535,18.817-6.286,25.467L235.945,182.024z" /></svg>
