<?xml version="1.0"?><svg xmlns="http://www.w3.org/2000/svg" viewBox="0 -256 1950 1950" version="1.1"><g transform="matrix(1,0,0,-1,21.678786,1392.819)"><path style="fill: #aaa" d="m 448,1088 q 0,53 -37.5,90.5 Q 373,1216 320,1216 267,1216 229.5,1178.5 192,1141 192,1088 192,1035 229.5,997.5 267,960 320,960 q 53,0 90.5,37.5 Q 448,1035 448,1088 z M 1515,512 q 0,-53 -37,-90 L 987,-70 q -39,-37 -91,-37 -53,0 -90,37 L 91,646 Q 53,683 26.5,747 0,811 0,864 v 416 q 0,52 38,90 38,38 90,38 h 416 q 53,0 117,-26.5 64,-26.5 102,-64.5 l 715,-714 q 37,-39 37,-91 z m 384,0 q 0,-53 -37,-90 L 1371,-70 q -39,-37 -91,-37 -36,0 -59,14 -23,14 -53,45 l 470,470 q 37,37 37,90 0,52 -37,91 l -715,714 q -38,38 -102,64.5 -64,26.5 -117,26.5 h 224 q 53,0 117,-26.5 64,-26.5 102,-64.5 l 715,-714 q 37,-39 37,-91 z" /></g></svg>
